<svg width="25" height="25" viewBox="0 0 25 25" fill="none" xmlns="http://www.w3.org/2000/svg">
<path d="M5.86758 18.9379C5.65951 18.8963 5.49305 18.8547 5.28498 18.7714C5.07691 18.6882 4.91045 18.6466 4.744 18.5634C4.36947 18.3969 4.03656 18.1888 3.70365 17.9391C3.03783 17.4814 2.49685 16.8572 2.08071 16.1081C1.66457 15.4007 1.41488 14.5684 1.37327 13.7778C1.33166 13.3616 1.37327 12.9871 1.41488 12.571C1.4565 12.3629 1.49811 12.1964 1.53973 11.9884C1.58134 11.7803 1.66457 11.6138 1.70618 11.4058L1.7478 11.9884C1.7478 12.1964 1.78941 12.3629 1.83102 12.571C1.87264 12.9455 1.95587 13.32 2.03909 13.6529C2.20555 14.3604 2.45523 15.0262 2.82976 15.6504C3.20428 16.2746 3.62042 16.8572 4.1614 17.3982C4.41109 17.6479 4.70238 17.8975 4.99368 18.1472C5.11852 18.2721 5.28498 18.3969 5.45144 18.5217L5.86758 18.9379Z" fill="#42ADE2"/>
<path d="M5.74272 20.4361C5.61788 20.5193 5.45143 20.5609 5.28497 20.6025C5.11852 20.6442 4.99367 20.6858 4.82722 20.6858C4.53592 20.7274 4.20301 20.769 3.8701 20.7274C3.24589 20.6858 2.58006 20.5193 2.03908 20.228C1.45649 19.9367 0.957121 19.479 0.624209 18.938C0.457753 18.6883 0.291298 18.397 0.166456 18.1057C0.124842 17.9809 0.0832278 17.8144 0.0416139 17.648C0.0416139 17.5231 0 17.3983 0 17.2318C0.124842 17.3567 0.20807 17.4815 0.291298 17.5647C0.416139 17.6896 0.499367 17.8144 0.582595 17.8976C0.790665 18.1057 0.957121 18.3138 1.16519 18.4802C1.58133 18.8548 1.99747 19.1877 2.49684 19.4374C2.95459 19.687 3.49557 19.8951 3.99494 20.0616C4.24462 20.1448 4.53592 20.1864 4.82722 20.2696C4.95206 20.3112 5.11852 20.3112 5.24336 20.3529C5.45143 20.3945 5.57627 20.3945 5.74272 20.4361Z" fill="#42ADE2"/>
<path d="M15.1475 0.211609C15.3556 0.253223 15.522 0.336451 15.7301 0.419679C15.9382 0.502906 16.1046 0.586134 16.2711 0.669362C16.6456 0.877432 16.9785 1.0855 17.3114 1.33519C17.9772 1.83455 18.5182 2.50038 18.8927 3.24943C19.2673 3.99848 19.4753 4.83076 19.4753 5.62142C19.4753 6.03756 19.4337 6.41209 19.3505 6.82823C19.3089 7.03629 19.2673 7.20275 19.184 7.41082C19.1008 7.61889 19.0592 7.78535 18.976 7.9518L18.9344 7.36921C18.9344 7.16114 18.9344 6.99468 18.8927 6.78661L18.7679 5.66303C18.6431 4.9556 18.3934 4.24816 18.0605 3.58234C17.7276 2.91652 17.3114 2.33392 16.812 1.79294C16.5624 1.50164 16.2711 1.25196 16.0214 0.96066C15.8965 0.835818 15.7301 0.710976 15.5636 0.586134L15.1475 0.211609Z" fill="#42ADE2"/>
<path d="M18.7679 0.045166C18.9343 0.08678 19.0592 0.128394 19.184 0.211622C19.3089 0.253236 19.4753 0.336464 19.6002 0.419692C19.8498 0.586147 20.0995 0.752603 20.3492 0.960673C20.807 1.37681 21.1815 1.87618 21.3896 2.45877C21.6392 3.04137 21.7225 3.66558 21.6392 4.28979C21.5976 4.58109 21.5144 4.87238 21.4312 5.16368C21.3896 5.28852 21.3063 5.45498 21.2647 5.57982C21.1815 5.70466 21.1399 5.8295 21.015 5.95434V5.12207C21.015 4.83077 20.9734 4.58109 20.9734 4.3314C20.8902 3.79042 20.807 3.29105 20.5989 2.8333C20.3908 2.33393 20.1411 1.91779 19.8498 1.46004C19.6834 1.25197 19.5169 1.00229 19.3505 0.794217C19.2673 0.669375 19.184 0.586147 19.0592 0.461305C18.976 0.253236 18.8511 0.128394 18.7679 0.045166Z" fill="#42ADE2"/>
<path d="M3.32912 6.24573C2.49684 6.62026 2.20555 7.61899 2.58007 8.45127L7.82343 19.3957L10.7364 18.0225L5.49305 7.03639C5.11852 6.20412 4.1614 5.82959 3.32912 6.24573Z" fill="#FFDD67"/>
<path d="M17.1033 14.9429L20.1828 13.4865L14.1903 1.00228C13.7742 0.169998 12.7755 -0.204528 11.9016 0.211612C11.0693 0.627751 10.6948 1.62649 11.1109 2.50038L17.1033 14.9429Z" fill="#FFDD67"/>
<path d="M11.9432 0.170003C11.86 0.211616 11.7767 0.25323 11.6935 0.336458C12.4842 0.128388 13.3165 0.502914 13.691 1.25196L19.6834 13.7361L20.2244 13.4865L14.232 1.00228C13.8158 0.128389 12.8171 -0.246137 11.9432 0.170003Z" fill="#EBA352"/>
<path d="M10.7364 17.9807L13.9407 16.441L7.82342 3.70713C7.40728 2.83324 6.32532 2.4171 5.45142 2.83324C4.57753 3.24938 4.20301 4.33134 4.61914 5.20523L10.7364 17.9807Z" fill="#FFDD67"/>
<path d="M5.45142 2.875C5.36819 2.91661 5.28496 2.95823 5.20174 3.04145C5.9924 2.83338 6.90791 3.20791 7.28243 3.99857L11.0693 11.9468L11.9848 12.4878L7.82341 3.74889C7.40727 2.83338 6.36693 2.45886 5.45142 2.875Z" fill="#EBA352"/>
<path d="M13.4413 15.4423L16.6456 13.9026L10.5283 1.16876C10.1122 0.294872 9.03021 -0.121268 8.15632 0.336486C7.28243 0.752625 6.9079 1.83459 7.32404 2.70848L13.4413 15.4423Z" fill="#FFDD67"/>
<path d="M8.15633 0.294919C8.0731 0.336533 7.98987 0.419761 7.90665 0.461375C8.69731 0.253305 9.61282 0.627831 9.98734 1.4185L14.2736 10.4071L15.1891 10.9481L10.5283 1.16881C10.1122 0.253305 9.03022 -0.12122 8.15633 0.294919Z" fill="#EBA352"/>
<path d="M3.32912 6.24569C3.24589 6.2873 3.16267 6.32891 3.07944 6.41214C3.82849 6.20407 4.61915 6.5786 4.95206 7.32765L8.07311 13.861L8.98862 14.402L5.49305 7.07796C5.11852 6.20407 4.1614 5.82955 3.32912 6.24569Z" fill="#EBA352"/>
<path d="M24.469 4.99724C23.3454 4.12334 21.5144 5.08047 20.5989 8.07667C19.9747 10.1574 19.8914 10.7816 18.5598 11.4058L17.8107 9.86607C17.8107 9.86607 5.99239 15.5672 6.45014 16.4827C6.45014 16.4827 7.86502 20.8938 10.2786 22.9328C13.8574 26.0123 22.2218 22.7248 22.5964 14.7765C22.8044 10.1574 25.6758 5.95436 24.469 4.99724Z" fill="#FFDD67"/>
<path d="M24.469 4.99723C24.2609 4.83077 24.0112 4.74755 23.7616 4.70593C23.8032 4.74755 23.8864 4.74755 23.928 4.78916C25.1764 5.74628 23.8864 7.95182 23.179 9.94929C22.5964 11.5306 22.097 13.1536 22.1802 14.7349C22.5131 21.6428 15.5636 24.9303 11.4022 23.6819C15.4804 25.3881 23.0541 22.1422 22.7212 14.943C22.638 13.3616 23.0957 11.8219 23.7199 10.1574C24.3858 8.15989 25.6758 5.95435 24.469 4.99723Z" fill="#EBA352"/>
<path d="M18.9343 11.2394C16.3543 11.5307 12.5674 15.2343 15.2307 19.2709C13.2748 15.1927 16.4791 12.4462 18.5182 11.4891C18.7263 11.3226 18.9343 11.2394 18.9343 11.2394Z" fill="#EBA352"/>
</svg>
