<svg width="19" height="19" viewBox="0 0 19 19" fill="none" xmlns="http://www.w3.org/2000/svg">
<path d="M16.95 19C14.8667 19 12.8083 18.5458 10.775 17.6375C8.74167 16.7292 6.89167 15.4417 5.225 13.775C3.55833 12.1083 2.27083 10.2583 1.3625 8.225C0.454167 6.19167 0 4.13333 0 2.05C0 1.75 0.1 1.5 0.3 1.3C0.5 1.1 0.75 1 1.05 1H5.1C5.33333 1 5.54167 1.07917 5.725 1.2375C5.90833 1.39583 6.01667 1.58333 6.05 1.8L6.7 5.3C6.73333 5.56667 6.725 5.79167 6.675 5.975C6.625 6.15833 6.53333 6.31667 6.4 6.45L3.975 8.9C4.30833 9.51667 4.70417 10.1125 5.1625 10.6875C5.62083 11.2625 6.125 11.8167 6.675 12.35C7.19167 12.8667 7.73333 13.3458 8.3 13.7875C8.86667 14.2292 9.46667 14.6333 10.1 15L12.45 12.65C12.6 12.5 12.7958 12.3875 13.0375 12.3125C13.2792 12.2375 13.5167 12.2167 13.75 12.25L17.2 12.95C17.4333 13.0167 17.625 13.1375 17.775 13.3125C17.925 13.4875 18 13.6833 18 13.9V17.95C18 18.25 17.9 18.5 17.7 18.7C17.5 18.9 17.25 19 16.95 19ZM15 8L13.55 6.6L15.15 5H10V3H15.15L13.6 1.45L15 0L19 4.05L15 8Z" fill="#85CF4A"/>
</svg>
