<svg width="40" height="40" viewBox="0 0 40 40" fill="none" xmlns="http://www.w3.org/2000/svg">
<path fill-rule="evenodd" clip-rule="evenodd" d="M20.0958 1.07594e-05C10.2424 -0.010227 1.83847 7.2867 0.260801 17.2223C-1.31686 27.1579 4.39824 36.7944 13.7497 39.9663C14.7601 40.1551 15.1175 39.5132 15.1175 38.9718C15.1175 38.4305 15.1175 37.1969 15.1175 35.4849C9.51067 36.7313 8.32771 32.7282 8.32771 32.7282C7.95575 31.4876 7.16552 30.4217 6.0973 29.7198C4.28587 28.461 6.24518 28.461 6.24518 28.461C7.53181 28.6466 8.66332 29.4265 9.31351 30.5758C9.8642 31.5958 10.7899 32.3496 11.8859 32.6709C12.982 32.9921 14.1582 32.8543 15.1545 32.2877C15.2318 31.2522 15.6688 30.2789 16.3867 29.5436C11.9259 29.0275 7.24331 27.2651 7.24331 19.4733C7.21269 17.4379 7.9495 15.4683 9.30119 13.9725C8.69918 12.2026 8.76953 10.2665 9.49837 8.54712C9.49837 8.54712 11.1866 7.99325 15.0189 10.6493C18.3098 9.72629 21.7832 9.72629 25.0743 10.6493C28.9066 7.99325 30.5825 8.54712 30.5825 8.54712C31.3215 10.2483 31.4093 12.1706 30.8288 13.9347C32.1805 15.4305 32.9174 17.4001 32.8868 19.4355C32.8868 27.3156 28.1919 29.04 23.7187 29.5058C24.6892 30.5023 25.1883 31.8802 25.0865 33.2821C25.0865 36.0263 25.0865 38.2417 25.0865 38.9088C25.0865 39.5759 25.4438 40.0922 26.4666 39.8907C35.707 36.6367 41.3101 27.0572 39.7363 17.203C38.1626 7.34903 29.8696 0.0852154 20.0958 1.07594e-05Z" fill="#758CA3"/>
</svg>
