<svg width="40" height="40" viewBox="0 0 40 40" fill="none" xmlns="http://www.w3.org/2000/svg">
<path d="M34.0833 34.0833H28.1567V24.8C28.1567 22.5866 28.1167 19.7366 25.0733 19.7366C21.9867 19.7366 21.5133 22.15 21.5133 24.6366V34.0833H15.5867V14.9933H21.2767V17.6033H21.3567C22.5167 15.6233 24.6767 14.4367 26.97 14.52C32.9767 14.52 34.0867 18.47 34.0867 23.6133L34.0833 34.0799V34.0833ZM8.9 12.3833C7.98958 12.379 7.11765 12.0156 6.47356 11.3721C5.82948 10.7287 5.46526 9.8571 5.46 8.94668C5.46 7.06002 7.01333 5.5067 8.9 5.5067C10.7867 5.5067 12.3367 7.06002 12.34 8.94668C12.34 10.8333 10.7867 12.3833 8.9 12.3833ZM11.8633 34.0833H5.93V14.9933H11.8633V34.0833ZM37.0333 4.95439e-05H2.95C2.17717 -0.0044392 1.43379 0.296247 0.88141 0.836767C0.32903 1.37729 0.0122822 2.11396 0 2.88671V37.1132C0.0122822 37.886 0.32903 38.6227 0.88141 39.1632C1.43379 39.7037 2.17717 40.0044 2.95 39.9999H37.0367C37.8113 40.0062 38.5571 39.7065 39.112 39.166C39.6668 38.6254 39.986 37.8878 40 37.1132V2.88337C39.986 2.10947 39.6666 1.37247 39.1115 0.833009C38.5565 0.293544 37.8107 -0.00466083 37.0367 0.00338262L37.0333 4.95439e-05Z" fill="#0A66C2"/>
</svg>
