<svg width="330" height="25" viewBox="0 0 330 25" fill="none" xmlns="http://www.w3.org/2000/svg">
<path d="M0.772 24V0.528H9.232C10.888 0.528 12.4 0.756 13.768 1.212C15.136 1.644 16.228 2.388 17.044 3.444C17.86 4.5 18.268 5.964 18.268 7.836C18.268 9.564 17.884 10.992 17.116 12.12C16.372 13.224 15.364 14.052 14.092 14.604L19.42 24H13.48L8.98 15.54H6.064V24H0.772ZM6.064 11.328H8.8C10.192 11.328 11.248 11.04 11.968 10.464C12.712 9.864 13.084 8.988 13.084 7.836C13.084 6.684 12.712 5.88 11.968 5.424C11.248 4.968 10.192 4.74 8.8 4.74H6.064V11.328ZM29.8769 12.12L29.3009 14.28H34.3049L33.7649 12.12C33.4529 10.944 33.1289 9.696 32.7929 8.376C32.4809 7.056 32.1689 5.784 31.8569 4.56H31.7129C31.4249 5.808 31.1249 7.092 30.8129 8.412C30.5249 9.708 30.2129 10.944 29.8769 12.12ZM21.3809 24L28.7249 0.528H35.0969L42.4409 24H36.8249L35.3849 18.42H28.2209L26.7809 24H21.3809ZM46.8056 24V0.528H52.6016L56.3816 10.968C56.6216 11.64 56.8496 12.348 57.0656 13.092C57.2816 13.836 57.5096 14.568 57.7496 15.288H57.8936C58.1336 14.568 58.3496 13.836 58.5416 13.092C58.7576 12.348 58.9856 11.64 59.2256 10.968L62.9336 0.528H68.6936V24H63.8696V15.396C63.8696 14.628 63.9056 13.776 63.9776 12.84C64.0736 11.88 64.1696 10.92 64.2656 9.96C64.3856 9 64.4816 8.148 64.5536 7.404H64.4096L62.5016 12.984L59.1536 21.948H56.2376L52.8896 12.984L51.0176 7.404H50.8736C50.9696 8.148 51.0656 9 51.1616 9.96C51.2576 10.92 51.3416 11.88 51.4136 12.84C51.5096 13.776 51.5576 14.628 51.5576 15.396V24H46.8056ZM85.5675 24.432C83.4555 24.432 81.5955 23.94 79.9875 22.956C78.4035 21.972 77.1555 20.568 76.2435 18.744C75.3555 16.896 74.9115 14.7 74.9115 12.156C74.9115 9.588 75.3555 7.416 76.2435 5.64C77.1555 3.84 78.4035 2.472 79.9875 1.536C81.5955 0.575999 83.4555 0.0959988 85.5675 0.0959988C87.6795 0.0959988 89.5275 0.575999 91.1115 1.536C92.7195 2.472 93.9675 3.84 94.8555 5.64C95.7675 7.44 96.2235 9.612 96.2235 12.156C96.2235 14.7 95.7675 16.896 94.8555 18.744C93.9675 20.568 92.7195 21.972 91.1115 22.956C89.5275 23.94 87.6795 24.432 85.5675 24.432ZM85.5675 19.86C87.1755 19.86 88.4475 19.164 89.3835 17.772C90.3195 16.38 90.7875 14.508 90.7875 12.156C90.7875 9.804 90.3195 7.968 89.3835 6.648C88.4475 5.328 87.1755 4.668 85.5675 4.668C83.9595 4.668 82.6875 5.328 81.7515 6.648C80.8155 7.968 80.3475 9.804 80.3475 12.156C80.3475 14.508 80.8155 16.38 81.7515 17.772C82.6875 19.164 83.9595 19.86 85.5675 19.86ZM102.437 24V0.528H107.873L113.993 12.192L116.297 17.376H116.441C116.345 16.128 116.213 14.736 116.045 13.2C115.877 11.664 115.793 10.2 115.793 8.808V0.528H120.833V24H115.397L109.277 12.3L106.973 7.188H106.829C106.949 8.484 107.081 9.876 107.225 11.364C107.393 12.852 107.477 14.292 107.477 15.684V24H102.437ZM148.259 24L141.167 0.528H146.783L149.591 11.472C149.951 12.744 150.263 13.992 150.527 15.216C150.815 16.44 151.139 17.7 151.499 18.996H151.643C151.979 17.7 152.291 16.44 152.579 15.216C152.867 13.992 153.179 12.744 153.515 11.472L156.287 0.528H161.687L154.631 24H148.259ZM165.995 24V0.528H180.683V4.992H171.287V9.708H179.279V14.136H171.287V19.536H181.043V24H165.995ZM187.517 24V0.528H195.977C197.633 0.528 199.145 0.756 200.513 1.212C201.881 1.644 202.973 2.388 203.789 3.444C204.605 4.5 205.013 5.964 205.013 7.836C205.013 9.564 204.629 10.992 203.861 12.12C203.117 13.224 202.109 14.052 200.837 14.604L206.165 24H200.225L195.725 15.54H192.809V24H187.517ZM192.809 11.328H195.545C196.937 11.328 197.993 11.04 198.713 10.464C199.457 9.864 199.829 8.988 199.829 7.836C199.829 6.684 199.457 5.88 198.713 5.424C197.993 4.968 196.937 4.74 195.545 4.74H192.809V11.328ZM211.395 24V0.528H216.687V24H211.395ZM231.188 24.432C229.652 24.432 228.116 24.144 226.58 23.568C225.068 22.992 223.712 22.152 222.512 21.048L225.536 17.412C226.376 18.132 227.312 18.72 228.344 19.176C229.376 19.632 230.372 19.86 231.332 19.86C232.436 19.86 233.252 19.656 233.78 19.248C234.332 18.84 234.608 18.288 234.608 17.592C234.608 16.848 234.296 16.308 233.672 15.972C233.072 15.612 232.256 15.216 231.224 14.784L228.164 13.488C227.372 13.152 226.616 12.708 225.896 12.156C225.176 11.58 224.588 10.872 224.132 10.032C223.676 9.192 223.448 8.208 223.448 7.08C223.448 5.784 223.796 4.608 224.492 3.552C225.212 2.496 226.196 1.656 227.444 1.032C228.716 0.407999 230.168 0.0959988 231.8 0.0959988C233.144 0.0959988 234.488 0.359999 235.832 0.887999C237.176 1.416 238.352 2.184 239.36 3.192L236.66 6.54C235.892 5.94 235.124 5.484 234.356 5.172C233.588 4.836 232.736 4.668 231.8 4.668C230.888 4.668 230.156 4.86 229.604 5.244C229.076 5.604 228.812 6.12 228.812 6.792C228.812 7.512 229.148 8.052 229.82 8.412C230.516 8.772 231.368 9.156 232.376 9.564L235.4 10.788C236.816 11.364 237.944 12.156 238.784 13.164C239.624 14.172 240.044 15.504 240.044 17.16C240.044 18.456 239.696 19.656 239 20.76C238.304 21.864 237.296 22.752 235.976 23.424C234.656 24.096 233.06 24.432 231.188 24.432ZM252.359 24.432C250.823 24.432 249.287 24.144 247.751 23.568C246.239 22.992 244.883 22.152 243.683 21.048L246.707 17.412C247.547 18.132 248.483 18.72 249.515 19.176C250.547 19.632 251.543 19.86 252.503 19.86C253.607 19.86 254.423 19.656 254.951 19.248C255.503 18.84 255.779 18.288 255.779 17.592C255.779 16.848 255.467 16.308 254.843 15.972C254.243 15.612 253.427 15.216 252.395 14.784L249.335 13.488C248.543 13.152 247.787 12.708 247.067 12.156C246.347 11.58 245.759 10.872 245.303 10.032C244.847 9.192 244.619 8.208 244.619 7.08C244.619 5.784 244.967 4.608 245.663 3.552C246.383 2.496 247.367 1.656 248.615 1.032C249.887 0.407999 251.339 0.0959988 252.971 0.0959988C254.315 0.0959988 255.659 0.359999 257.003 0.887999C258.347 1.416 259.523 2.184 260.531 3.192L257.831 6.54C257.063 5.94 256.295 5.484 255.527 5.172C254.759 4.836 253.907 4.668 252.971 4.668C252.059 4.668 251.327 4.86 250.775 5.244C250.247 5.604 249.983 6.12 249.983 6.792C249.983 7.512 250.319 8.052 250.991 8.412C251.687 8.772 252.539 9.156 253.547 9.564L256.571 10.788C257.987 11.364 259.115 12.156 259.955 13.164C260.795 14.172 261.215 15.504 261.215 17.16C261.215 18.456 260.867 19.656 260.171 20.76C259.475 21.864 258.467 22.752 257.147 23.424C255.827 24.096 254.231 24.432 252.359 24.432ZM266.999 24V0.528H272.291V24H266.999ZM279.627 24V0.528H285.423L289.203 10.968C289.443 11.64 289.671 12.348 289.887 13.092C290.103 13.836 290.331 14.568 290.571 15.288H290.715C290.955 14.568 291.171 13.836 291.363 13.092C291.579 12.348 291.807 11.64 292.047 10.968L295.755 0.528H301.515V24H296.691V15.396C296.691 14.628 296.727 13.776 296.799 12.84C296.895 11.88 296.991 10.92 297.087 9.96C297.207 9 297.303 8.148 297.375 7.404H297.231L295.323 12.984L291.975 21.948H289.059L285.711 12.984L283.839 7.404H283.695C283.791 8.148 283.887 9 283.983 9.96C284.079 10.92 284.163 11.88 284.235 12.84C284.331 13.776 284.379 14.628 284.379 15.396V24H279.627ZM318.389 24.432C316.277 24.432 314.417 23.94 312.809 22.956C311.225 21.972 309.977 20.568 309.065 18.744C308.177 16.896 307.733 14.7 307.733 12.156C307.733 9.588 308.177 7.416 309.065 5.64C309.977 3.84 311.225 2.472 312.809 1.536C314.417 0.575999 316.277 0.0959988 318.389 0.0959988C320.501 0.0959988 322.349 0.575999 323.933 1.536C325.541 2.472 326.789 3.84 327.677 5.64C328.589 7.44 329.045 9.612 329.045 12.156C329.045 14.7 328.589 16.896 327.677 18.744C326.789 20.568 325.541 21.972 323.933 22.956C322.349 23.94 320.501 24.432 318.389 24.432ZM318.389 19.86C319.997 19.86 321.269 19.164 322.205 17.772C323.141 16.38 323.609 14.508 323.609 12.156C323.609 9.804 323.141 7.968 322.205 6.648C321.269 5.328 319.997 4.668 318.389 4.668C316.781 4.668 315.509 5.328 314.573 6.648C313.637 7.968 313.169 9.804 313.169 12.156C313.169 14.508 313.637 16.38 314.573 17.772C315.509 19.164 316.781 19.86 318.389 19.86Z" fill="#151515"/>
</svg>
